<?xml version="1.0" encoding="UTF-8"?>
<svg id="Layer_3" xmlns="http://www.w3.org/2000/svg" version="1.1" viewBox="0 0 612 792">
  <!-- Generator: Adobe Illustrator 29.0.1, SVG Export Plug-In . SVG Version: 2.1.0 Build 192)  -->
  <defs>
    <style>
      .st0 {
        fill: none;
      }

      .st0, .st1, .st2, .st3, .st4, .st5, .st6, .st7 {
        stroke: #231f20;
        stroke-miterlimit: 10;
      }

      .st8, .st1 {
        fill: #b43b8b;
      }

      .st9, .st4, .st7 {
        fill: #231f20;
      }

      .st2, .st3, .st6 {
        fill: #fff;
      }

      .st2, .st4 {
        stroke-width: 3px;
      }

      .st3 {
        stroke-width: 5px;
      }

      .st5 {
        fill: #b4378e;
      }
    </style>
  </defs>
  <path class="st7" d="M313.87,181.83c-5.13,8.42-6.55,8.95-11.44,16.72-4.45,7.07-7.86,14.74-11.25,22.39-17.93,40.45-35.83,81.36-44.52,124.73-10.37,51.71-7.3,105.05-4.19,157.69-5.67,7.35-8.3,12.61-12.93,17.86-15.55,17.67-27.52,40.05-34.5,62.53-4.47,14.39-3.98,31.68-4.06,46.75-.07,13.65-.09,28.25,1.74,38.95,1.16,6.77-1.1,14.33,3.59,19.35,4.93-5.42,8.19-12.1,11.7-18.53,8.79-16.1,19.79-31.14,33.68-43.12s23.79-23.63,49.62-21.67c9.49.72,16.57.1,24.82.85,7.82.71,15.63,1.42,23.45,2.14,13.07,1.19,26.54,2.5,38.09,8.73,14.17,7.64,23.63,21.74,31,36.05,7.37,14.31,13.32,29.53,23.15,42.28,6.14-30.57,8.49-57.64,6.3-95.54-1.02-20.34-5.42-40.39-16.33-56.21-8.75-12.69-19.54-25.79-29.25-35.07,5.79-57.46,4.65-114.98-6.87-170.58-11.52-55.6-33.56-109.25-65.7-155.61,1.62-20.31,1.63-40.59,2.11-61.08.05-2.21-.48-4.99-2.62-5.55-1.49-.39-3.05.67-3.75,2.04s-.74,2.97-.77,4.51c-.35,18.79-.7,40.58-1.05,59.36"/>
  <path class="st3" d="M319.47,182.34c73.29,123.57,94.65,255.72,42.81,416.83-21.43-1.63-47.82-2.88-69.83-2.87-10.43,0-20.87-.39-27.95-.7-15.49-59.65-23.75-111.21-24.78-169.4-1.02-58.19,9.18-119.07,32.53-172.81,8.68-19.99,15.59-35.66,28.67-57.27,3.03-5,6.03-9.97,6.03-9.97.76-1.17,2.83-4.06,3.57-5.24s1.42-2.51,1.46-3.77c.53-18.91.14-37.46,1.73-60.2.29-4.11,3.38-3.6,5.88-2.69,5.7,2.06-2.01,50.88-.07,68.46"/>
  <rect class="st2" x="267.85" y="602.84" width="87" height="36"/>
  <rect class="st4" x="268.61" y="617.7" width="85.4" height="15.71"/>
  <path class="st9" d="M313.59,192.61c23.19,36.38,41.88,76.13,55.38,117.82-28.86,9.57-78.22,7.34-108.2,2.17,8.04-41.76,31.49-87.54,52.02-118.57"/>
  <path class="st8" d="M313.25,193.27c-3.04,3.42-11.59,18.3-13.38,22.24-1.64,3.61-9.89,16.37-11.95,20.47-11.04,21.91-20.17,44.37-25.23,68.45,6.45.81,24.54.97,28.33,1.02,8.64.11,18.29.01,26.64.59.1-2.31.09-22.88-.67-30.9-2.45-25.57-1.53-49.63-3.44-77.4"/>
  <path class="st0" d="M384.51,525.04c-.05.3-.09.61-.14.91.16-1.09-.71-8.71.43-12.35,27.04,24.21,45.37,58.85,46.69,95.12.28,7.78,1.81,17.57,1.33,25.35-.81,13.26-1.63,26.52-2.44,39.78"/>
  <path class="st0" d="M391.98,403.22c.22-76.87-31.78-148.62-69.62-215.27l-1.05-2.1"/>
  <path class="st6" d="M386.25,528.56c9.96,8.24,18.6,18.71,24.36,30.92,4.17,8.84,7.88,17.08,10.11,26.74,4.88,21.1,5.49,45.82,3.08,67.44-7.73-14.33-17.83-39.32-31.95-46.68-3.31-1.73-12.31-6.47-16.18-8.28l-.79,5.33c9.34,4.6,17.36,11.3,24.01,19.39,6.4,7.79,11.48,16.77,16.52,25.69,4.1,7.26,9.77,19.69,11.55,28.02.72-3.17,2.21-25.68,2.52-32.64,1.06-23.32.3-47.05-5.84-69.38-6.14-22.33-18.1-43.31-35.79-55.97.2,3.04-1.59,6.59-1.39,9.63"/>
  <path class="st6" d="M244.59,529.43c.17-2.56-2.32-4.73-2.53-7.32-14.83,10.64-32.85,41.24-37.99,60-5.14,18.75-5.78,38.68-4.89,58.25.25,5.43-.89,12.38.26,17.67.74,1.88.04,11.5.62,14.04,1.49-7,7.48-21.73,10.92-27.83,4.23-7.49,8.48-15.04,13.85-21.57,5.57-6.79,12.29-12.41,20.12-16.28-.22-1.49-.44-2.98-.66-4.47-3.24,1.52-11.3,7.01-14.08,9.4-1.87,1.61-7.62,8.41-9.32,10.25-9.05,9.78-10.94,15.37-17.42,27.4-2.02-18.15-1.02-39.81,3.06-57.52,1.87-8.11,13.73-33.15,18.95-39.12,2.79-3.67,4.84-6.58,7.63-10.25.74-.97,9.57-10.28,9.92-10.84.36-.59,1.42-1.65,1.42-1.65"/>
  <path class="st7" d="M256.33,318.61c58.49,12.62,108.35-2.53,111.05-.49,5.07,3.83,11.26,35.75,13.81,53.58,1.53,10.73,9.99,65.13-.05,119.01-14.8,79.41-25.44,97.52-27.01,99.19-3.16,3.35-79.74,1.62-82.87-.72-3.85-2.89-5.89-11.05-6.63-15.75-4.72-29.86-16.54-90.79-18.8-124.57-.87-13.05.31-55.39,1.46-64.67.94-7.6,1.29-13.47,2.66-24.86.99-8.27,2.22-23.32,4.96-31.82,0,0,.51-6.33,1.77-9.2"/>
  <g>
    <path class="st2" d="M311.5,705.69c6.02-4.79,8.24-12.55,11.72-19.41,3.23-6.39,4.23-15.2,4.38-22.89.81-41.97-1.08-82.76-.25-125.88.47-24.33,1.55-47.35-3.44-67.93-1.43-5.88-7.09-11.18-13.14-10.93-3.93.16-7.37,2.95-9.34,6.35s-3.17,7.32-3.28,11.25c-.57,21.34-.11,43.38.49,65.12.71,25.81,1.12,61.43,1.12,61.43,0,0-.47,32.08-1.49,42.04-.75,7.3-1.27,16.14-.93,23.47.65,13.92,5.81,27.59,14.53,38.46"/>
    <path class="st5" d="M313.67,686.61c-2.97-9.91-2.77-20.44-2.67-30.78.49-53.29-2.48-106.53-3.84-159.8-.21-8.18-.3-16.71,3.29-24.06.92-1.88,2.79-3.92,4.74-3.16,1.37.53,1.89,2.17,2.21,3.61,6.14,27.32,2.28,75.74,3.22,86.5,0,0-.27,33.59-.52,46.06-.38,18.88-.58,40.7-1.86,59.54-.46,6.79-2.92,15.61-4.21,22.29"/>
    <path class="st7" d="M318.37,477.68c-.18.74,2.63,26.64,2.44,39.87-.17,11.87-.07,23.97-.46,35.84-1.07,32.07-1.84,63.67-1.76,95.75.03,11.84-.06,23.89-3.55,35.21,1.24-7.63-1.15-13.62-1.8-21.32-.3-3.53.58-7.08.93-10.6,3.17-31.96,1.63-65.62,2.09-97.74.36-25.01,1.72-52.12,2.07-77.13"/>
  </g>
  <circle class="st2" cx="310.92" cy="389.26" r="49.55"/>
  <ellipse class="st1" cx="310.92" cy="389.71" rx="44.26" ry="43.76"/>
  <polygon class="st6" points="310.92 361.05 317.18 382.06 337.42 382.06 321.05 395.05 327.3 416.05 310.92 403.07 294.55 416.05 300.8 395.05 284.42 382.06 304.67 382.06 310.92 361.05"/>
</svg>